Coordinates
version=1
nRows=49
nColumns=12
inDegrees=yes

Units are S.I. units (second, meters, Newtons, ...)
Angles are in degrees

endheader
time	SC_y	SC_z	SC_x	AC_y	AC_z	AC_x	GH_y	GH_z	GH_yy	EL_x	PS_y
       0.0              -29.75          32.72           40.8          57.24         -3.359         -7.692         -75.48         -2.507         -114.5          74.86          85.64
   0.03268              -29.75          32.72          40.81          57.24         -3.359         -7.688         -75.45         -2.503         -114.4          74.86          85.64
   0.06535              -29.75          32.72          40.81          57.24         -3.359         -7.684         -75.42         -2.499         -114.4          74.86          85.63
   0.09803              -29.75          32.72          40.82          57.24          -3.36          -7.68         -75.38         -2.495         -114.4          74.87          85.62
    0.1307              -29.75          32.72          40.82          57.24          -3.36         -7.675         -75.34         -2.491         -114.3          74.87          85.61
    0.1634              -29.75          32.71          40.82          57.23          -3.36          -7.67          -75.3         -2.486         -114.3          74.88          85.59
    0.1961              -29.74          32.71          40.83          57.23         -3.361         -7.665         -75.26         -2.482         -114.3          74.88          85.58
    0.2287              -29.74          32.71          40.84          57.23         -3.361         -7.659         -75.22         -2.476         -114.2          74.89          85.57
    0.2614              -29.74          32.71          40.84          57.23         -3.361         -7.653         -75.17         -2.471         -114.2          74.89          85.55
    0.2941              -29.74           32.7          40.85          57.23         -3.362         -7.646         -75.12         -2.465         -114.1           74.9          85.54
    0.3268              -29.74           32.7          40.85          57.22         -3.362         -7.639         -75.06         -2.458         -114.1          74.91          85.52
    0.3594              -29.74           32.7          40.86          57.22         -3.363         -7.631          -75.0         -2.452         -114.0          74.92          85.51
    0.3921              -29.74          32.69          40.87          57.22         -3.363         -7.623         -74.94         -2.444         -114.0          74.92          85.49
    0.4248              -29.74          32.69          40.88          57.21         -3.364         -7.614         -74.87         -2.436         -113.9          74.93          85.47
    0.4575              -29.73          32.69          40.88          57.21         -3.364         -7.605         -74.79         -2.427         -113.8          74.94          85.45
    0.4902              -29.73          32.68          40.89          57.21         -3.365         -7.594         -74.71         -2.418         -113.7          74.95          85.42
    0.5228              -29.73          32.68           40.9           57.2         -3.366         -7.583         -74.62         -2.408         -113.7          74.96           85.4
    0.5555              -29.73          32.67          40.92           57.2         -3.366         -7.571         -74.52         -2.397         -113.6          74.97          85.37
    0.5882              -29.73          32.67          40.93          57.19         -3.367         -7.557         -74.42         -2.385         -113.5          74.99          85.34
    0.6209              -29.72          32.66          40.94          57.19         -3.368         -7.542          -74.3         -2.371         -113.3           75.0           85.3
    0.6535              -29.72          32.65          40.96          57.18         -3.369         -7.526         -74.18         -2.357         -113.2          75.02          85.27
    0.6862              -29.72          32.65          40.97          57.18          -3.37         -7.508         -74.04         -2.341         -113.1          75.04          85.23
    0.7189              -29.72          32.64          40.99          57.17         -3.372         -7.489         -73.88         -2.323         -112.9          75.06          85.18
    0.7516              -29.71          32.63          41.01          57.16         -3.373         -7.467         -73.71         -2.303         -112.8          75.08          85.13
    0.7843              -29.71          32.62          41.03          57.15         -3.374         -7.443         -73.52         -2.281         -112.6           75.1          85.08
    0.8169               -29.7          32.61          41.06          57.14         -3.376         -7.416         -73.31         -2.257         -112.4          75.13          85.02
    0.8496               -29.7          32.59          41.08          57.13         -3.378         -7.385         -73.07         -2.229         -112.2          75.16          84.95
    0.8823              -29.69          32.58          41.12          57.12          -3.38         -7.351          -72.8         -2.199         -111.9          75.19          84.87
     0.915              -29.69          32.56          41.15          57.11         -3.383         -7.313          -72.5         -2.164         -111.6          75.23          84.78
    0.9476              -29.68          32.54          41.19          57.09         -3.385         -7.269         -72.16         -2.124         -111.3          75.27          84.68
    0.9803              -29.67          32.52          41.24          57.07         -3.388         -7.219         -71.77         -2.079         -110.9          75.32          84.57
     1.013              -29.66           32.5          41.29          57.05         -3.392         -7.162         -71.32         -2.027         -110.5          75.38          84.44
     1.046              -29.65          32.47          41.35          57.03         -3.396         -7.096          -70.8         -1.968         -110.0          75.44          84.29
     1.078              -29.64          32.44          41.42           57.0         -3.401         -7.019         -70.19         -1.898         -109.4          75.52          84.11
     1.111              -29.62           32.4           41.5          56.97         -3.407         -6.929         -69.49         -1.817         -108.7          75.61          83.91
     1.144              -29.61          32.35           41.6          56.93         -3.413         -6.823         -68.66         -1.721         -107.9          75.71          83.67
     1.176              -29.59           32.3          41.71          56.88         -3.421         -6.697         -67.67         -1.608         -107.0          75.83          83.38
     1.209              -29.56          32.23          41.85          56.83         -3.431         -6.547         -66.48         -1.471         -105.9          75.98          83.04
     1.242              -29.53          32.15          42.02          56.76         -3.442         -6.364         -65.05         -1.306         -104.5          76.16          82.62
     1.274              -29.49          32.06          42.22          56.68         -3.456         -6.141          -63.3         -1.105         -102.8          76.38          82.11
     1.307              -29.45          31.94          42.47          56.59         -3.473         -5.866         -61.13        -0.8561         -100.7          76.65          81.49
      1.34              -29.39          31.79          42.79          56.46         -3.495         -5.522         -58.44         -0.546         -98.17          76.99          80.71
     1.372              -29.32          31.61          43.18          56.31         -3.522          -5.09         -55.04        -0.1553         -94.92          77.42          79.72
     1.405              -29.23          31.37          43.68          56.11         -3.556          -4.54         -50.72         0.3414         -90.79          77.96          78.47
     1.438              -29.11          31.07          44.33          55.86           -3.6         -3.837          -45.2         0.9772         -85.51          78.65          76.87
      1.47              -28.96          30.68          45.15          55.53         -3.657         -2.934         -38.11          1.793         -78.72          79.54          74.82
     1.503              -28.77          30.19          46.21          55.12         -3.729         -1.781         -29.05          2.835         -70.06          80.67          72.19
     1.536              -28.54          29.57          47.53          54.59          -3.82        -0.3307         -17.66          4.145         -59.16           82.1          68.89
     1.569              -28.24          28.81          49.15          53.96         -3.931          1.436         -3.781          5.742         -45.89          83.84          64.87
